
<svg xmlns="http://www.w3.org/2000/svg" viewBox="0 0 512 512">
  <defs>
    <linearGradient id="grad1" x1="0%" y1="0%" x2="100%" y2="100%">
      <stop offset="0%" style="stop-color:#3AA89B;stop-opacity:1" />
      <stop offset="100%" style="stop-color:#2C877D;stop-opacity:1" />
    </linearGradient>
  </defs>
  <rect width="512" height="512" rx="120" fill="url(#grad1)"/>
  <path fill="white" d="M356.5 204.3l-28-28.1c-9.4-9.4-24.6-9.4-33.9 0L193.8 277l-83.3-13c-6.5-1-12.7 1.6-16.8 6.9-4.1 5.3-5.1 12.2-2.8 18.4l33.8 90.1-23.4 23.4c-9.4 9.4-9.4 24.6 0 33.9l17 17c9.4 9.4 24.6 9.4 33.9 0l23.4-23.4 90.1 33.8c6.2 2.3 13.1 1.3 18.4-2.8 5.3-4.1 7.9-10.3 6.9-16.8l-13-83.3 100.8-100.8c9.4-9.4 9.4-24.6 0-33.9l-28.1-28.1c-15.3-15.3-37.4-17.7-55.3-7.2l61 61L399 292.8l-61-61c10.5-17.9 8.1-40-7.2-55.3z"/>
</svg>
